PathFileType	4	(X/Y/Z)	OpenSim_Sub01_CSStiffKnee_Gyro.trc
DataRate	CameraRate	NumFrames	NumMarkers	Units	OrigDataRate	OrigDataStartFrame	OrigNumFrames
100	100	20	8	m	100	1346	5381
Frame#	Time	torso_imu_offset_imu	pelvis_imu_offset_imu	tibia_r_imu_offset_imu	femur_r_imu_offset_imu	tibia_l_imu_offset_imu	femur_l_imu_offset_imu	toes_r_imu_offset_imu	toes_l_imu_offset_imu
				X1	Y1	Z1	X2	Y2	Z2	X3	Y3	Z3	X4	Y4	Z4	X5	Y5	Z5	X6	Y6	Z6	X7	Y7	Z7	X8		Y8	Z8	

1346	13.45000000	-0.37851650	0.37036526	-0.39180558	-0.59274659	-0.00628489	-0.01297593	-0.61591869	-0.09141781	-1.50275796	-0.36629900	0.21038817	-0.18085022	-0.58732961	-0.11252127	1.23392614	-0.33861500	-0.66344109	0.33592809	-0.15472363	-1.85688251	-0.34878110	-1.07899290	-1.72066131	0.87128455
1347	13.46000000	-0.34296112	0.32999310	-0.39484200	-0.45435919	-0.00100048	-0.08405144	-0.60923744	-0.06497509	-1.59487212	-0.36964776	0.23874462	-0.07700208	-0.41783846	-0.11364488	1.13345464	-0.49251542	-0.63474360	0.46890636	-0.14746701	-2.12315041	-0.37904371	-1.04794326	-1.17426495	0.69981658
1348	13.47000000	-0.30161911	0.28154694	-0.39720871	-0.38552056	-0.08158388	-0.15935020	-0.63940805	-0.05157816	-1.68463259	-0.29519477	0.28255658	0.05558452	-0.74102388	-0.18623862	1.35695874	-0.56640035	-0.49294075	0.58948737	-0.10519577	-2.45391733	-0.43202462	-0.67745087	-0.71625741	0.47173479
1349	13.48000000	-0.26017526	0.24048092	-0.39215623	-0.37452953	-0.22514342	-0.22122417	-0.67367378	-0.05348552	-1.76097096	-0.19014603	0.34217963	0.21325953	-1.16216752	-0.24811156	1.63801024	-0.58062296	-0.35882228	0.60933439	-0.02924512	-2.85403746	-0.51584485	-0.22045909	-0.39646677	0.24817861
1350	13.49000000	-0.22468134	0.22113785	-0.37269929	-0.40131219	-0.40110304	-0.25144566	-0.67734051	-0.07136347	-1.81399621	-0.10626126	0.41623387	0.39113757	-1.25010498	-0.21338296	1.68174465	-0.56899828	-0.35638430	0.45064974	0.07245386	-3.32803460	-0.63650431	0.04598374	-0.24614768	0.09276714
1351	13.50000000	-0.20685083	0.21641831	-0.33865053	-0.44824308	-0.57118791	-0.23686149	-0.66054939	-0.09950262	-1.85484154	-0.06127809	0.49383836	0.58349812	-1.05749299	-0.12473136	1.49390408	-0.60297145	-0.45422403	0.22412709	0.15018259	-3.87875297	-0.77932613	0.09688423	-0.21724173	0.01520919
1352	13.51000000	-0.22170134	0.20661248	-0.29384459	-0.49916740	-0.69264839	-0.16738652	-0.65980161	-0.12845145	-1.90697424	-0.05288629	0.55851891	0.78411925	-0.92165075	-0.10037709	1.25726228	-0.77560984	-0.52955200	0.15116918	0.12974774	-4.50773802	-0.91744819	0.05578068	-0.21506070	-0.00658588
1353	13.52000000	-0.27667140	0.18019700	-0.24462892	-0.54349977	-0.73688554	-0.04874877	-0.69277075	-0.15278471	-1.97937846	-0.08346329	0.59623722	0.98492339	-1.02118614	-0.19564509	1.09113199	-1.05784360	-0.51994705	0.35059071	-0.02570478	-5.15125408	-1.02659919	0.01268131	-0.17837531	0.00588446
1354	13.53000000	-0.36219324	0.14427841	-0.20284172	-0.58303928	-0.70700349	0.07812885	-0.73436087	-0.17616882	-2.04836677	-0.16642410	0.59855141	1.17370688	-1.17237023	-0.32334537	0.96812206	-1.14745850	-0.50032136	0.70911221	-0.26900933	-5.59994321	-1.08864000	-0.02150379	-0.12195683	0.03336328
1355	13.54000000	-0.46619855	0.10817667	-0.18037094	-0.62060591	-0.61078000	0.17045412	-0.75334345	-0.20378641	-2.08779599	-0.31360384	0.55909552	1.33842319	-1.16199331	-0.38627440	0.84546808	-0.75134507	-0.55256015	1.08396465	-0.53800245	-5.65263900	-1.09059303	-0.04608578	-0.06991695	0.05771679
1356	13.55000000	-0.57455959	0.07803920	-0.18194798	-0.65225988	-0.45995710	0.21529875	-0.71492242	-0.24377340	-2.09180800	-0.50510985	0.48511753	1.47441087	-0.97862900	-0.38292544	0.72662178	-0.05193088	-0.63870145	1.35214131	-0.73305202	-5.39615371	-1.06420051	-0.05540777	-0.03663269	0.06927610
1357	13.56000000	-0.67195809	0.05812226	-0.20806546	-0.67008425	-0.26864457	0.21736683	-0.58236880	-0.30591165	-2.06656418	-0.70234354	0.39189183	1.58139349	-0.72981571	-0.36813467	0.64221767	0.48873505	-0.65036170	1.40271532	-0.73296149	-5.08638484	-1.06738128	-0.04092595	-0.03069806	0.06339218
1358	13.57000000	-0.74824239	0.04851496	-0.25559717	-0.66839099	-0.05714264	0.18462195	-0.35534109	-0.37958975	-2.02949774	-0.86896583	0.29373408	1.66512532	-0.50841076	-0.37349522	0.60581081	0.59998088	-0.53799572	1.21418729	-0.53074962	-4.81038296	-1.11479272	-0.00337841	-0.05213581	0.04099318
1359	13.58000000	-0.80482317	0.04006290	-0.31346448	-0.64658003	0.14050430	0.13179196	-0.11474365	-0.40864598	-2.02284566	-0.97421864	0.20258916	1.74469034	-0.37108319	-0.37711398	0.59206338	0.44621263	-0.38537336	0.96424615	-0.37490200	-4.27357972	-1.12380937	0.03570306	-0.08201064	0.01530669
1360	13.59000000	-0.84429862	0.02312009	-0.37000178	-0.60604258	0.29081054	0.07437349	0.04701450	-0.33890692	-2.07773381	-0.99159075	0.13005938	1.83788927	-0.36110029	-0.35285295	0.57307809	0.23881245	-0.28754421	0.84024510	-0.51174464	-3.17523020	-1.00943521	0.05404281	-0.10076165	0.00018457
1361	13.60000000	-0.86537533	-0.00412305	-0.41859194	-0.56161991	0.38525672	0.02635136	0.03224364	-0.20035286	-2.07593411	-0.93061799	0.08752172	1.93065572	-0.43392445	-0.30546405	0.54886200	0.06638661	-0.26978374	0.85107057	-0.80845949	-1.68389042	-0.79809166	0.05073140	-0.10885119	-0.00125690
1362	13.61000000	-0.86448486	-0.03885056	-0.45559636	-0.53602686	0.43004926	0.00080253	-0.25921347	-0.07247508	-1.81167336	-0.82205700	0.08615963	1.99018879	-0.49337256	-0.25788351	0.53585263	-0.05494131	-0.31616014	0.90045531	-0.90948285	-0.24427236	-0.58175396	0.03744710	-0.11852365	0.00776312
1363	13.62000000	-0.84245711	-0.07766403	-0.47745975	-0.53910300	0.43095267	0.00741362	-0.79021759	-0.00674500	-1.19797526	-0.68739363	0.12430794	1.99731119	-0.47538418	-0.22498746	0.54399800	-0.12088731	-0.40080179	0.91877506	-0.65331956	0.84509063	-0.41584380	0.02237661	-0.13569839	0.02351652
1364	13.63000000	-0.81000133	-0.11599888	-0.48072675	-0.55173267	0.39232067	0.04833262	-1.21721297	0.00931360	-0.41545590	-0.52681616	0.17163829	1.96378383	-0.38906255	-0.20314349	0.56829243	-0.15149442	-0.47684709	0.89888574	-0.31791706	1.61979294	-0.27233158	0.00555296	-0.15184205	0.04132220
1365	13.64000000	-0.77856253	-0.14928569	-0.46257244	-0.55232065	0.31906938	0.12309877	-1.19268617	-0.00386555	0.33071322	-0.33809581	0.19675649	1.90517256	-0.25573644	-0.18627590	0.60173990	-0.16865044	-0.49960993	0.84354401	-0.20759195	2.16299094	-0.11488416	-0.01373193	-0.15761554	0.05679005
